<svg width="251" height="251" viewBox="0 0 251 251" fill="none" xmlns="http://www.w3.org/2000/svg">
<path d="M46.6601 120.545C49.2801 81.0972 80.9701 49.4894 120.46 47.0095V0.942627C55.5001 3.50245 3.28008 55.619 0.580078 120.545H46.6601Z" fill="#F18046"/>
<path d="M120.19 204.849C80.7401 202.229 49.1301 170.542 46.6501 131.054H0.580078C3.14008 196.01 55.2601 248.226 120.19 250.926V204.849Z" fill="#F18046"/>
<path d="M130.969 47.0195C170.419 49.6394 202.029 81.3272 204.509 120.815H250.579C248.019 55.8589 195.899 3.64245 130.969 0.942627V47.0195Z" fill="#F18046"/>
<path d="M250.579 204.849C211.129 202.229 179.519 170.542 177.039 131.054H130.969C133.529 196.01 185.649 248.226 250.579 250.926V204.849Z" fill="#F18046"/>
</svg>
