<svg class="main-svg" xmlns="http://www.w3.org/2000/svg" xmlns:xlink="http://www.w3.org/1999/xlink" width="700" height="500" style="" viewBox="0 0 700 500"><rect x="0" y="0" width="700" height="500" style="fill: rgb(0, 0, 0); fill-opacity: 0;"/><defs id="defs-3d7375"><g class="clips"><clipPath id="clip3d7375xyplot" class="plotclip"><rect width="540" height="320"/></clipPath><clipPath class="axesclip" id="clip3d7375x"><rect x="80" y="0" width="540" height="500"/></clipPath><clipPath class="axesclip" id="clip3d7375y"><rect x="0" y="100" width="700" height="320"/></clipPath><clipPath class="axesclip" id="clip3d7375xy"><rect x="80" y="100" width="540" height="320"/></clipPath></g><g class="gradients"/><g class="patterns"/></defs><g class="bglayer"><rect class="bg" x="80" y="100" width="540" height="320" style="fill: rgb(0, 0, 0); fill-opacity: 0; stroke-width: 0;"/></g><g class="layer-below"><g class="imagelayer"/><g class="shapelayer"/></g><g class="cartesianlayer"><g class="subplot xy"><g class="layer-subplot"><g class="shapelayer"/><g class="imagelayer"/></g><g class="minor-gridlayer"><g class="x"/><g class="y"/></g><g class="gridlayer"><g class="x"><path class="xgrid crisp" transform="translate(106.07,0)" d="M0,100v320" style="stroke: rgb(255, 255, 255); stroke-opacity: 1; stroke-width: 1px;"/><path class="xgrid crisp" transform="translate(233.7,0)" d="M0,100v320" style="stroke: rgb(255, 255, 255); stroke-opacity: 1; stroke-width: 1px;"/><path class="xgrid crisp" transform="translate(361.16,0)" d="M0,100v320" style="stroke: rgb(255, 255, 255); stroke-opacity: 1; stroke-width: 1px;"/><path class="xgrid crisp" transform="translate(488.79,0)" d="M0,100v320" style="stroke: rgb(255, 255, 255); stroke-opacity: 1; stroke-width: 1px;"/><path class="xgrid crisp" transform="translate(616.25,0)" d="M0,100v320" style="stroke: rgb(255, 255, 255); stroke-opacity: 1; stroke-width: 1px;"/></g><g class="y"><path class="ygrid crisp" transform="translate(0,339.15)" d="M80,0h540" style="stroke: rgb(255, 255, 255); stroke-opacity: 1; stroke-width: 1px;"/><path class="ygrid crisp" transform="translate(0,258.3)" d="M80,0h540" style="stroke: rgb(255, 255, 255); stroke-opacity: 1; stroke-width: 1px;"/><path class="ygrid crisp" transform="translate(0,177.45)" d="M80,0h540" style="stroke: rgb(255, 255, 255); stroke-opacity: 1; stroke-width: 1px;"/></g></g><g class="zerolinelayer"><path class="yzl zl crisp" transform="translate(0,420)" d="M80,0h540" style="stroke: rgb(255, 255, 255); stroke-opacity: 1; stroke-width: 2px;"/></g><g class="layer-between"><g class="shapelayer"/><g class="imagelayer"/></g><path class="xlines-below"/><path class="ylines-below"/><g class="overlines-below"/><g class="xaxislayer-below"/><g class="yaxislayer-below"/><g class="overaxes-below"/><g class="overplot"><g class="xy" transform="translate(80,100)" clip-path="url(#clip3d7375xyplot)"><g class="scatterlayer mlayer"><g class="trace scatter tracec1ce55" style="stroke-miterlimit: 2;"><g class="fills"><g><path class="js-fill" d="M540,320L0,320L0,318.38L8.91,315.15L9.59,313.53L12.38,311.91L34.28,310.3L39.08,308.68L48.51,307.06L58.87,303.83L59.02,302.21L60.22,300.6L68.52,298.98L71.89,295.74L79.91,294.13L80.4,292.51L81.87,290.89L82.93,287.66L88,286.04L90.92,284.43L97.97,282.81L105.77,279.57L107.89,277.96L112.45,276.34L120.99,274.72L125.02,271.49L125.02,269.87L125.19,261.79L126.37,260.17L128.51,258.55L128.65,256.94L133.22,248.85L133.56,247.23L135.3,245.62L135.45,244L142.31,239.15L148.02,237.53L155.02,234.3L155.71,232.68L164.82,231.06L164.98,229.45L165.49,227.83L170.01,226.21L171.17,221.36L173.36,219.74L173.51,213.28L175.27,211.66L185.47,210.04L188.39,208.43L190.97,206.81L190.98,205.19L203.64,203.57L204.99,201.96L213.73,198.72L222.77,197.11L228.33,193.87L231.35,192.26L234.81,189.02L240.74,187.4L248.06,185.79L248.1,184.17L256.89,182.55L259.61,180.94L265.04,179.32L265.18,177.7L267.82,176.09L276.03,174.47L276.53,172.85L279.17,171.23L286.17,169.62L288.93,168L289.86,166.38L292.1,164.77L294.37,161.53L294.88,159.91L296.16,156.68L296.64,155.06L298.33,146.98L300.7,145.36L302.23,143.74L302.38,142.13L305.7,134.04L306.58,132.43L307.87,129.19L309.23,127.57L309.34,125.96L311.66,124.34L312.75,122.72L321.33,121.11L321.75,117.87L324.03,116.26L325.04,114.64L328.1,113.02L332.95,111.4L333.82,109.79L334.22,108.17L336.07,106.55L336.58,103.32L337.11,101.7L337.63,98.47L339.73,96.85L345.72,95.23L346.2,93.62L347.82,92L354.42,90.38L373.07,85.53L373.08,83.91L373.8,80.68L377.82,79.06L378.39,77.45L388.1,75.83L390.38,74.21L396.63,72.6L400.19,69.36L400.74,67.74L401.87,66.13L401.92,64.51L402.05,62.89L417.07,61.28L433.12,59.66L434.2,58.04L443.21,51.57L443.65,49.96L443.87,46.72L444.9,45.11L444.92,43.49L445.9,41.87L446.26,40.26L451.3,38.64L458.14,35.4L468.23,33.79L474.2,27.32L484.3,25.7L485.53,24.09L497.56,22.47L498.44,20.85L511.3,19.23L538.06,17.62L540,16" style="fill: rgb(99, 110, 250); fill-opacity: 0.5; stroke-width: 0;"/></g></g><g class="errorbars"/><g class="lines"><path class="js-line" d="M0,318.38L8.91,315.15L9.59,313.53L12.38,311.91L34.28,310.3L39.08,308.68L48.51,307.06L58.87,303.83L59.02,302.21L60.22,300.6L68.52,298.98L71.89,295.74L79.91,294.13L80.4,292.51L81.87,290.89L82.93,287.66L88,286.04L90.92,284.43L97.97,282.81L105.77,279.57L107.89,277.96L112.45,276.34L120.99,274.72L125.02,271.49L125.02,269.87L125.19,261.79L126.37,260.17L128.51,258.55L128.65,256.94L133.22,248.85L133.56,247.23L135.3,245.62L135.45,244L142.31,239.15L148.02,237.53L155.02,234.3L155.71,232.68L164.82,231.06L164.98,229.45L165.49,227.83L170.01,226.21L171.17,221.36L173.36,219.74L173.51,213.28L175.27,211.66L185.47,210.04L188.39,208.43L190.97,206.81L190.98,205.19L203.64,203.57L204.99,201.96L213.73,198.72L222.77,197.11L228.33,193.87L231.35,192.26L234.81,189.02L240.74,187.4L248.06,185.79L248.1,184.17L256.89,182.55L259.61,180.94L265.04,179.32L265.18,177.7L267.82,176.09L276.03,174.47L276.53,172.85L279.17,171.23L286.17,169.62L288.93,168L289.86,166.38L292.1,164.77L294.37,161.53L294.88,159.91L296.16,156.68L296.64,155.06L298.33,146.98L300.7,145.36L302.23,143.74L302.38,142.13L305.7,134.04L306.58,132.43L307.87,129.19L309.23,127.57L309.34,125.96L311.66,124.34L312.75,122.72L321.33,121.11L321.75,117.87L324.03,116.26L325.04,114.64L328.1,113.02L332.95,111.4L333.82,109.79L334.22,108.17L336.07,106.55L336.58,103.32L337.11,101.7L337.63,98.47L339.73,96.85L345.72,95.23L346.2,93.62L347.82,92L354.42,90.38L373.07,85.53L373.08,83.91L373.8,80.68L377.82,79.06L378.39,77.45L388.1,75.83L390.38,74.21L396.63,72.6L400.19,69.36L400.74,67.74L401.87,66.13L401.92,64.51L402.05,62.89L417.07,61.28L433.12,59.66L434.2,58.04L443.21,51.57L443.65,49.96L443.87,46.72L444.9,45.11L444.92,43.49L445.9,41.87L446.26,40.26L451.3,38.64L458.14,35.4L468.23,33.79L474.2,27.32L484.3,25.7L485.53,24.09L497.56,22.47L498.44,20.85L511.3,19.23L538.06,17.62L540,16" style="vector-effect: none; fill: none; stroke: rgb(99, 110, 250); stroke-opacity: 1; stroke-width: 2px; opacity: 1;"/></g><g class="points"/><g class="text"/></g></g></g></g><g class="zerolinelayer-above"/><path class="xlines-above crisp" d="M0,0" style="fill: none;"/><path class="ylines-above crisp" d="M0,0" style="fill: none;"/><g class="overlines-above"/><g class="xaxislayer-above"><g class="xtick"><text text-anchor="middle" x="0" y="439" transform="translate(106.07,0)" style="font-family: 'Open Sans'; font-size: 18px; fill: rgb(255, 255, 255); fill-opacity: 1; white-space: pre;">2016</text></g><g class="xtick"><text text-anchor="middle" x="0" y="439" style="font-family: 'Open Sans'; font-size: 18px; fill: rgb(255, 255, 255); fill-opacity: 1; white-space: pre;" transform="translate(233.7,0)">2018</text></g><g class="xtick"><text text-anchor="middle" x="0" y="439" style="font-family: 'Open Sans'; font-size: 18px; fill: rgb(255, 255, 255); fill-opacity: 1; white-space: pre;" transform="translate(361.16,0)">2020</text></g><g class="xtick"><text text-anchor="middle" x="0" y="439" style="font-family: 'Open Sans'; font-size: 18px; fill: rgb(255, 255, 255); fill-opacity: 1; white-space: pre;" transform="translate(488.79,0)">2022</text></g><g class="xtick"><text text-anchor="middle" x="0" y="439" style="font-family: 'Open Sans'; font-size: 18px; fill: rgb(255, 255, 255); fill-opacity: 1; white-space: pre;" transform="translate(616.25,0)">2024</text></g></g><g class="yaxislayer-above"><g class="ytick"><text text-anchor="end" x="79" y="6.3" transform="translate(0,420)" style="font-family: 'Open Sans'; font-size: 18px; fill: rgb(255, 255, 255); fill-opacity: 1; white-space: pre;">0</text></g><g class="ytick"><text text-anchor="end" x="79" y="6.3" style="font-family: 'Open Sans'; font-size: 18px; fill: rgb(255, 255, 255); fill-opacity: 1; white-space: pre;" transform="translate(0,339.15)">50</text></g><g class="ytick"><text text-anchor="end" x="79" y="6.3" style="font-family: 'Open Sans'; font-size: 18px; fill: rgb(255, 255, 255); fill-opacity: 1; white-space: pre;" transform="translate(0,258.3)">100</text></g><g class="ytick"><text text-anchor="end" x="79" y="6.3" style="font-family: 'Open Sans'; font-size: 18px; fill: rgb(255, 255, 255); fill-opacity: 1; white-space: pre;" transform="translate(0,177.45)">150</text></g></g><g class="overaxes-above"/></g></g><g class="polarlayer"/><g class="smithlayer"/><g class="ternarylayer"/><g class="geolayer"/><g class="funnelarealayer"/><g class="pielayer"/><g class="iciclelayer"/><g class="treemaplayer"/><g class="sunburstlayer"/><g class="glimages"/><defs id="topdefs-3d7375"><g class="clips"/></defs><g class="layer-above"><g class="imagelayer"/><g class="shapelayer"/></g><g class="infolayer"><g class="g-gtitle"><text class="gtitle" x="35" y="50" text-anchor="start" dy="0em" style="opacity: 1; font-family: 'Open Sans'; font-size: 25px; fill: rgb(255, 255, 255); fill-opacity: 1; white-space: pre;">MultiQC code contributors over time</text></g><g class="g-xtitle"><text class="xtitle" x="350" y="472.9" text-anchor="middle" style="opacity: 1; font-family: 'Open Sans'; font-size: 22px; fill: rgb(255, 255, 255); fill-opacity: 1; white-space: pre;">Date</text></g><g class="g-ytitle"><text class="ytitle" transform="rotate(-90,23.799999999999997,260)" x="23.799999999999997" y="260" text-anchor="middle" style="opacity: 1; font-family: 'Open Sans'; font-size: 22px; fill: rgb(255, 255, 255); fill-opacity: 1; white-space: pre;">Number of contributors</text></g></g></svg>