<svg class="main-svg" xmlns="http://www.w3.org/2000/svg" xmlns:xlink="http://www.w3.org/1999/xlink" width="700" height="500" style="" viewBox="0 0 700 500"><rect x="0" y="0" width="700" height="500" style="fill: rgb(0, 0, 0); fill-opacity: 0;"/><defs id="defs-873ee1"><g class="clips"><clipPath id="clip873ee1xyplot" class="plotclip"><rect width="540" height="320"/></clipPath><clipPath class="axesclip" id="clip873ee1x"><rect x="80" y="0" width="540" height="500"/></clipPath><clipPath class="axesclip" id="clip873ee1y"><rect x="0" y="100" width="700" height="320"/></clipPath><clipPath class="axesclip" id="clip873ee1xy"><rect x="80" y="100" width="540" height="320"/></clipPath></g><g class="gradients"/><g class="patterns"/></defs><g class="bglayer"><rect class="bg" x="80" y="100" width="540" height="320" style="fill: rgb(0, 0, 0); fill-opacity: 0; stroke-width: 0;"/></g><g class="layer-below"><g class="imagelayer"/><g class="shapelayer"/></g><g class="cartesianlayer"><g class="subplot xy"><g class="layer-subplot"><g class="shapelayer"/><g class="imagelayer"/></g><g class="minor-gridlayer"><g class="x"/><g class="y"/></g><g class="gridlayer"><g class="x"><path class="xgrid crisp" transform="translate(101.82,0)" d="M0,100v320" style="stroke: rgb(255, 255, 255); stroke-opacity: 1; stroke-width: 1px;"/><path class="xgrid crisp" transform="translate(208.62,0)" d="M0,100v320" style="stroke: rgb(255, 255, 255); stroke-opacity: 1; stroke-width: 1px;"/><path class="xgrid crisp" transform="translate(315.28,0)" d="M0,100v320" style="stroke: rgb(255, 255, 255); stroke-opacity: 1; stroke-width: 1px;"/><path class="xgrid crisp" transform="translate(422.08,0)" d="M0,100v320" style="stroke: rgb(255, 255, 255); stroke-opacity: 1; stroke-width: 1px;"/><path class="xgrid crisp" transform="translate(528.73,0)" d="M0,100v320" style="stroke: rgb(255, 255, 255); stroke-opacity: 1; stroke-width: 1px;"/></g><g class="y"><path class="ygrid crisp" transform="translate(0,355.86)" d="M80,0h540" style="stroke: rgb(255, 255, 255); stroke-opacity: 1; stroke-width: 1px;"/><path class="ygrid crisp" transform="translate(0,291.73)" d="M80,0h540" style="stroke: rgb(255, 255, 255); stroke-opacity: 1; stroke-width: 1px;"/><path class="ygrid crisp" transform="translate(0,227.59)" d="M80,0h540" style="stroke: rgb(255, 255, 255); stroke-opacity: 1; stroke-width: 1px;"/><path class="ygrid crisp" transform="translate(0,163.46)" d="M80,0h540" style="stroke: rgb(255, 255, 255); stroke-opacity: 1; stroke-width: 1px;"/></g></g><g class="zerolinelayer"><path class="yzl zl crisp" transform="translate(0,420)" d="M80,0h540" style="stroke: rgb(255, 255, 255); stroke-opacity: 1; stroke-width: 2px;"/></g><g class="layer-between"><g class="shapelayer"/><g class="imagelayer"/></g><path class="xlines-below"/><path class="ylines-below"/><g class="overlines-below"/><g class="xaxislayer-below"/><g class="yaxislayer-below"/><g class="overaxes-below"/><g class="overplot"><g class="xy" transform="translate(80,100)" clip-path="url(#clip873ee1xyplot)"><g class="scatterlayer mlayer"><g class="trace scatter trace871c3b" style="stroke-miterlimit: 2;"><g class="fills"><g><path class="js-fill" d="M540,320L0,320L0,318.72L7.45,316.15L8.03,314.87L10.36,313.59L28.68,312.3L32.7,311.02L40.59,309.74L49.26,307.17L49.39,305.89L50.39,304.61L57.34,303.32L60.16,300.76L66.87,299.48L67.28,298.19L68.51,296.91L69.4,294.35L73.64,293.06L76.09,291.78L81.98,290.5L88.51,287.93L90.28,286.65L94.1,285.37L101.24,284.08L104.61,281.52L104.62,280.24L104.76,273.82L105.75,272.54L107.53,271.26L107.65,269.97L111.48,263.56L111.76,262.28L113.22,261L113.34,259.71L119.08,255.86L123.86,254.58L129.72,252.02L130.3,250.73L137.92,249.45L138.05,248.17L138.48,246.89L142.27,245.6L143.23,241.76L145.07,240.47L145.2,235.34L146.67,234.06L155.2,232.78L157.64,231.49L159.81,230.21L159.81,228.93L170.41,227.65L171.53,226.36L175,225.08L175,223.8L189.32,218.67L191.07,217.38L195.48,214.82L196.49,213.54L207.58,210.97L207.61,209.69L214.97,208.41L217.24,207.12L221.78,205.84L221.91,204.56L224.12,203.27L229.23,201.99L230.99,200.71L231.4,199.43L239.47,198.14L241.78,196.86L242.55,195.58L244.43,194.3L246.33,191.73L246.76,190.45L248.23,186.6L248.49,185.32L249.01,182.75L249.54,181.47L249.65,180.19L251.63,178.9L252.91,177.62L253.03,176.34L256.99,167.36L257.63,166.08L258.76,164.79L258.86,163.51L261.71,160.95L268.89,159.66L269.25,157.1L271.15,155.81L271.99,154.53L274.55,153.25L278.61,151.97L279.34,150.68L279.67,149.4L281.23,148.12L281.65,145.55L282.1,144.27L282.53,141.7L284.29,140.42L288.47,139.14L289.3,137.86L289.7,136.57L291.06,135.29L312.19,130.16L312.2,128.88L312.8,126.31L316.16,125.03L316.64,123.75L324.76,122.46L326.67,121.18L331.9,119.9L335.34,116.05L336.28,114.77L336.44,112.2L349.01,110.92L362.44,109.64L363.34,108.35L370.88,103.22L371.25,101.94L372.31,96.81L373.13,95.53L373.43,94.24L377.65,92.96L383.37,90.4L391.82,89.11L393.61,86.55L393.61,85.27L393.61,76.29L394.73,75L395.18,73.72L396.81,72.44L405.27,71.16L406.29,69.87L416.36,68.59L417.1,67.31L427.86,66.03L429.81,64.74L430.84,62.18L431.44,60.89L433.9,59.61L434.04,58.33L440.1,57.05L440.1,55.76L440.21,54.48L450.25,53.2L452.22,50.63L458.93,49.35L476.01,46.78L478.32,45.5L478.35,41.65L480.52,40.37L495.41,39.09L495.89,37.81L500.14,36.52L500.14,35.24L500.14,32.68L505.34,31.39L505.34,30.11L517.31,28.83L517.93,24.98L524.06,23.7L527.57,22.41L528.87,21.13L540,17.28L540,16" style="fill: rgb(99, 110, 250); fill-opacity: 0.5; stroke-width: 0;"/></g></g><g class="errorbars"/><g class="lines"><path class="js-line" d="M0,318.72L7.45,316.15L8.03,314.87L10.36,313.59L28.68,312.3L32.7,311.02L40.59,309.74L49.26,307.17L49.39,305.89L50.39,304.61L57.34,303.32L60.16,300.76L66.87,299.48L67.28,298.19L68.51,296.91L69.4,294.35L73.64,293.06L76.09,291.78L81.98,290.5L88.51,287.93L90.28,286.65L94.1,285.37L101.24,284.08L104.61,281.52L104.62,280.24L104.76,273.82L105.75,272.54L107.53,271.26L107.65,269.97L111.48,263.56L111.76,262.28L113.22,261L113.34,259.71L119.08,255.86L123.86,254.58L129.72,252.02L130.3,250.73L137.92,249.45L138.05,248.17L138.48,246.89L142.27,245.6L143.23,241.76L145.07,240.47L145.2,235.34L146.67,234.06L155.2,232.78L157.64,231.49L159.81,230.21L159.81,228.93L170.41,227.65L171.53,226.36L175,225.08L175,223.8L189.32,218.67L191.07,217.38L195.48,214.82L196.49,213.54L207.58,210.97L207.61,209.69L214.97,208.41L217.24,207.12L221.78,205.84L221.91,204.56L224.12,203.27L229.23,201.99L230.99,200.71L231.4,199.43L239.47,198.14L241.78,196.86L242.55,195.58L244.43,194.3L246.33,191.73L246.76,190.45L248.23,186.6L248.49,185.32L249.01,182.75L249.54,181.47L249.65,180.19L251.63,178.9L252.91,177.62L253.03,176.34L256.99,167.36L257.63,166.08L258.76,164.79L258.86,163.51L261.71,160.95L268.89,159.66L269.25,157.1L271.15,155.81L271.99,154.53L274.55,153.25L278.61,151.97L279.34,150.68L279.67,149.4L281.23,148.12L281.65,145.55L282.1,144.27L282.53,141.7L284.29,140.42L288.47,139.14L289.3,137.86L289.7,136.57L291.06,135.29L312.19,130.16L312.2,128.88L312.8,126.31L316.16,125.03L316.64,123.75L324.76,122.46L326.67,121.18L331.9,119.9L335.34,116.05L336.28,114.77L336.44,112.2L349.01,110.92L362.44,109.64L363.34,108.35L370.88,103.22L371.25,101.94L372.31,96.81L373.13,95.53L373.43,94.24L377.65,92.96L383.37,90.4L391.82,89.11L393.61,86.55L393.61,85.27L393.61,76.29L394.73,75L395.18,73.72L396.81,72.44L405.27,71.16L406.29,69.87L416.36,68.59L417.1,67.31L427.86,66.03L429.81,64.74L430.84,62.18L431.44,60.89L433.9,59.61L434.04,58.33L440.1,57.05L440.1,55.76L440.21,54.48L450.25,53.2L452.22,50.63L458.93,49.35L476.01,46.78L478.32,45.5L478.35,41.65L480.52,40.37L495.41,39.09L495.89,37.81L500.14,36.52L500.14,35.24L500.14,32.68L505.34,31.39L505.34,30.11L517.31,28.83L517.93,24.98L524.06,23.7L527.57,22.41L528.87,21.13L540,17.28L540,16" style="vector-effect: none; fill: none; stroke: rgb(99, 110, 250); stroke-opacity: 1; stroke-width: 2px; opacity: 1;"/></g><g class="points"/><g class="text"/></g></g></g></g><g class="zerolinelayer-above"/><path class="xlines-above crisp" d="M0,0" style="fill: none;"/><path class="ylines-above crisp" d="M0,0" style="fill: none;"/><g class="overlines-above"/><g class="xaxislayer-above"><g class="xtick"><text text-anchor="middle" x="0" y="439" transform="translate(101.82,0)" style="font-family: 'Open Sans'; font-size: 18px; fill: rgb(255, 255, 255); fill-opacity: 1; white-space: pre;">2016</text></g><g class="xtick"><text text-anchor="middle" x="0" y="439" style="font-family: 'Open Sans'; font-size: 18px; fill: rgb(255, 255, 255); fill-opacity: 1; white-space: pre;" transform="translate(208.62,0)">2018</text></g><g class="xtick"><text text-anchor="middle" x="0" y="439" style="font-family: 'Open Sans'; font-size: 18px; fill: rgb(255, 255, 255); fill-opacity: 1; white-space: pre;" transform="translate(315.28,0)">2020</text></g><g class="xtick"><text text-anchor="middle" x="0" y="439" style="font-family: 'Open Sans'; font-size: 18px; fill: rgb(255, 255, 255); fill-opacity: 1; white-space: pre;" transform="translate(422.08,0)">2022</text></g><g class="xtick"><text text-anchor="middle" x="0" y="439" style="font-family: 'Open Sans'; font-size: 18px; fill: rgb(255, 255, 255); fill-opacity: 1; white-space: pre;" transform="translate(528.73,0)">2024</text></g></g><g class="yaxislayer-above"><g class="ytick"><text text-anchor="end" x="79" y="6.3" transform="translate(0,420)" style="font-family: 'Open Sans'; font-size: 18px; fill: rgb(255, 255, 255); fill-opacity: 1; white-space: pre;">0</text></g><g class="ytick"><text text-anchor="end" x="79" y="6.3" style="font-family: 'Open Sans'; font-size: 18px; fill: rgb(255, 255, 255); fill-opacity: 1; white-space: pre;" transform="translate(0,355.86)">50</text></g><g class="ytick"><text text-anchor="end" x="79" y="6.3" style="font-family: 'Open Sans'; font-size: 18px; fill: rgb(255, 255, 255); fill-opacity: 1; white-space: pre;" transform="translate(0,291.73)">100</text></g><g class="ytick"><text text-anchor="end" x="79" y="6.3" style="font-family: 'Open Sans'; font-size: 18px; fill: rgb(255, 255, 255); fill-opacity: 1; white-space: pre;" transform="translate(0,227.59)">150</text></g><g class="ytick"><text text-anchor="end" x="79" y="6.3" style="font-family: 'Open Sans'; font-size: 18px; fill: rgb(255, 255, 255); fill-opacity: 1; white-space: pre;" transform="translate(0,163.46)">200</text></g></g><g class="overaxes-above"/></g></g><g class="polarlayer"/><g class="smithlayer"/><g class="ternarylayer"/><g class="geolayer"/><g class="funnelarealayer"/><g class="pielayer"/><g class="iciclelayer"/><g class="treemaplayer"/><g class="sunburstlayer"/><g class="glimages"/><defs id="topdefs-873ee1"><g class="clips"/></defs><g class="layer-above"><g class="imagelayer"/><g class="shapelayer"/></g><g class="infolayer"><g class="g-gtitle"><text class="gtitle" x="35" y="50" text-anchor="start" dy="0em" style="opacity: 1; font-family: 'Open Sans'; font-size: 25px; fill: rgb(255, 255, 255); fill-opacity: 1; white-space: pre;">MultiQC code contributors over time</text></g><g class="g-xtitle"><text class="xtitle" x="350" y="472.9" text-anchor="middle" style="opacity: 1; font-family: 'Open Sans'; font-size: 22px; fill: rgb(255, 255, 255); fill-opacity: 1; white-space: pre;">Date</text></g><g class="g-ytitle"><text class="ytitle" transform="rotate(-90,22.440624999999997,260)" x="22.440624999999997" y="260" text-anchor="middle" style="opacity: 1; font-family: 'Open Sans'; font-size: 22px; fill: rgb(255, 255, 255); fill-opacity: 1; white-space: pre;">Number of contributors</text></g></g></svg>