<svg class="main-svg" xmlns="http://www.w3.org/2000/svg" xmlns:xlink="http://www.w3.org/1999/xlink" width="700" height="500" style="" viewBox="0 0 700 500"><rect x="0" y="0" width="700" height="500" style="fill: rgb(0, 0, 0); fill-opacity: 0;"/><defs id="defs-f62eab"><g class="clips"><clipPath id="clipf62eabxyplot" class="plotclip"><rect width="452" height="320"/></clipPath><clipPath class="axesclip" id="clipf62eabx"><rect x="80" y="0" width="452" height="500"/></clipPath><clipPath class="axesclip" id="clipf62eaby"><rect x="0" y="100" width="700" height="320"/></clipPath><clipPath class="axesclip" id="clipf62eabxy"><rect x="80" y="100" width="452" height="320"/></clipPath></g><g class="gradients"/><g class="patterns"/></defs><g class="bglayer"><rect class="bg" x="80" y="100" width="452" height="320" style="fill: rgb(0, 0, 0); fill-opacity: 0; stroke-width: 0;"/></g><g class="layer-below"><g class="imagelayer"/><g class="shapelayer"/></g><g class="cartesianlayer"><g class="subplot xy"><g class="layer-subplot"><g class="shapelayer"/><g class="imagelayer"/></g><g class="minor-gridlayer"><g class="x"/><g class="y"/></g><g class="gridlayer"><g class="x"><path class="xgrid crisp" transform="translate(92.19,0)" d="M0,100v320" style="stroke: rgb(255, 255, 255); stroke-opacity: 1; stroke-width: 1px;"/><path class="xgrid crisp" transform="translate(183.51,0)" d="M0,100v320" style="stroke: rgb(255, 255, 255); stroke-opacity: 1; stroke-width: 1px;"/><path class="xgrid crisp" transform="translate(274.7,0)" d="M0,100v320" style="stroke: rgb(255, 255, 255); stroke-opacity: 1; stroke-width: 1px;"/><path class="xgrid crisp" transform="translate(366.02,0)" d="M0,100v320" style="stroke: rgb(255, 255, 255); stroke-opacity: 1; stroke-width: 1px;"/><path class="xgrid crisp" transform="translate(457.21,0)" d="M0,100v320" style="stroke: rgb(255, 255, 255); stroke-opacity: 1; stroke-width: 1px;"/></g><g class="y"><path class="ygrid crisp" transform="translate(0,321.24)" d="M80,0h452" style="stroke: rgb(255, 255, 255); stroke-opacity: 1; stroke-width: 1px;"/><path class="ygrid crisp" transform="translate(0,238.48)" d="M80,0h452" style="stroke: rgb(255, 255, 255); stroke-opacity: 1; stroke-width: 1px;"/><path class="ygrid crisp" transform="translate(0,155.72)" d="M80,0h452" style="stroke: rgb(255, 255, 255); stroke-opacity: 1; stroke-width: 1px;"/></g></g><g class="zerolinelayer"><path class="yzl zl crisp" transform="translate(0,404)" d="M80,0h452" style="stroke: rgb(255, 255, 255); stroke-opacity: 1; stroke-width: 2px;"/></g><g class="layer-between"><g class="shapelayer"/><g class="imagelayer"/></g><path class="xlines-below"/><path class="ylines-below"/><g class="overlines-below"/><g class="xaxislayer-below"/><g class="yaxislayer-below"/><g class="overaxes-below"/><g class="overplot"><g class="xy" transform="translate(80,100)" clip-path="url(#clipf62eabxyplot)"><g class="scatterlayer mlayer"><g class="trace scatter trace334089" style="stroke-miterlimit: 2;"><g class="fills"><g><path class="js-fill" d="M452,304L0,304L0,302.34L0.19,295.72L0.19,294.07L0.26,284.14L2.17,282.48L18.06,279.17L18.11,277.52L20.65,275.86L21.5,274.21L22.16,272.55L24.31,270.9L27.02,269.24L27.02,267.59L27.12,265.93L29.52,264.28L35.64,262.62L37.14,260.97L37.38,259.31L50.71,257.66L52.87,254.34L55.87,252.69L56.36,249.38L63.19,247.72L65.09,246.07L65.66,244.41L67.22,241.1L70.73,239.45L80.1,237.79L81.11,236.14L81.24,224.55L82.74,222.9L83.11,217.93L86.99,216.28L88.11,212.97L90.34,211.31L90.45,209.66L91.71,208L93.49,206.34L99.45,204.69L104.45,203.03L111.83,201.38L111.94,199.72L115.18,198.07L115.96,196.41L117.59,194.76L124.55,193.1L126.07,191.45L126.24,189.79L130.17,188.14L131.95,184.83L139.24,183.17L140.2,181.52L147.48,179.86L158.83,176.55L158.81,174.9L165.78,173.24L166.03,171.59L179.28,169.93L184.78,168.28L191.39,164.97L200.93,163.31L206.99,161.66L208.17,160L208.68,155.03L209.78,153.38L210.65,150.07L213.26,148.41L213.81,143.45L215.86,141.79L218.68,136.83L223.51,135.17L226.1,133.52L226.26,131.86L226.38,130.21L228.29,128.55L233.99,126.9L234.23,125.24L234.74,123.59L238.35,121.93L240.18,120.28L247.12,118.62L248.53,116.97L254.99,115.31L255.78,113.66L260.73,112L261.46,110.34L267.61,108.69L275.85,105.38L283.7,103.72L303.43,102.07L305.73,100.41L310.96,98.76L311.1,97.1L311.86,95.45L313.59,93.79L314.58,90.48L318.32,88.83L318.82,87.17L357.8,85.52L361.53,83.86L361.91,82.21L361.95,80.55L363.72,78.9L364.69,75.59L367.15,73.93L369.83,72.28L369.93,70.62L371.65,68.97L379.59,67.31L381.34,65.66L381.46,64L381.81,60.69L382.52,59.03L384.19,57.38L384.53,55.72L386.92,54.07L392.52,52.41L400.54,50.76L401.17,49.1L402.51,45.79L402.54,44.14L408.26,39.17L417.52,37.52L420.44,35.86L420.44,34.21L421.17,22.62L435.85,20.97L438.74,19.31L451.73,17.66L452,16" style="fill: rgb(99, 110, 250); fill-opacity: 0.5; stroke-width: 0;"/></g></g><g class="errorbars"/><g class="lines"><path class="js-line" d="M0,302.34L0.19,295.72L0.19,294.07L0.26,284.14L2.17,282.48L18.06,279.17L18.11,277.52L20.65,275.86L21.5,274.21L22.16,272.55L24.31,270.9L27.02,269.24L27.02,267.59L27.12,265.93L29.52,264.28L35.64,262.62L37.14,260.97L37.38,259.31L50.71,257.66L52.87,254.34L55.87,252.69L56.36,249.38L63.19,247.72L65.09,246.07L65.66,244.41L67.22,241.1L70.73,239.45L80.1,237.79L81.11,236.14L81.24,224.55L82.74,222.9L83.11,217.93L86.99,216.28L88.11,212.97L90.34,211.31L90.45,209.66L91.71,208L93.49,206.34L99.45,204.69L104.45,203.03L111.83,201.38L111.94,199.72L115.18,198.07L115.96,196.41L117.59,194.76L124.55,193.1L126.07,191.45L126.24,189.79L130.17,188.14L131.95,184.83L139.24,183.17L140.2,181.52L147.48,179.86L158.83,176.55L158.81,174.9L165.78,173.24L166.03,171.59L179.28,169.93L184.78,168.28L191.39,164.97L200.93,163.31L206.99,161.66L208.17,160L208.68,155.03L209.78,153.38L210.65,150.07L213.26,148.41L213.81,143.45L215.86,141.79L218.68,136.83L223.51,135.17L226.1,133.52L226.26,131.86L226.38,130.21L228.29,128.55L233.99,126.9L234.23,125.24L234.74,123.59L238.35,121.93L240.18,120.28L247.12,118.62L248.53,116.97L254.99,115.31L255.78,113.66L260.73,112L261.46,110.34L267.61,108.69L275.85,105.38L283.7,103.72L303.43,102.07L305.73,100.41L310.96,98.76L311.1,97.1L311.86,95.45L313.59,93.79L314.58,90.48L318.32,88.83L318.82,87.17L357.8,85.52L361.53,83.86L361.91,82.21L361.95,80.55L363.72,78.9L364.69,75.59L367.15,73.93L369.83,72.28L369.93,70.62L371.65,68.97L379.59,67.31L381.34,65.66L381.46,64L381.81,60.69L382.52,59.03L384.19,57.38L384.53,55.72L386.92,54.07L392.52,52.41L400.54,50.76L401.17,49.1L402.51,45.79L402.54,44.14L408.26,39.17L417.52,37.52L420.44,35.86L420.44,34.21L421.17,22.62L435.85,20.97L438.74,19.31L451.73,17.66L452,16" style="vector-effect: none; fill: none; stroke: rgb(99, 110, 250); stroke-opacity: 1; stroke-width: 2px; opacity: 1;"/></g><g class="points"/><g class="text"/></g><g class="trace scatter trace661c3b" style="stroke-miterlimit: 2; opacity: 1;"><g class="fills"/><g class="errorbars"/><g class="lines"><path class="js-line" d="M83.15,304L83.15,221.24" style="vector-effect: none; fill: none; stroke: rgb(239, 85, 59); stroke-opacity: 1; stroke-width: 2px; opacity: 1;"/></g><g class="points"/><g class="text"/></g></g></g></g><g class="zerolinelayer-above"/><path class="xlines-above crisp" d="M0,0" style="fill: none;"/><path class="ylines-above crisp" d="M0,0" style="fill: none;"/><g class="overlines-above"/><g class="xaxislayer-above"><g class="xtick"><text text-anchor="middle" x="0" y="439" transform="translate(92.19,0)" style="font-family: 'Open Sans'; font-size: 18px; fill: rgb(255, 255, 255); fill-opacity: 1; white-space: pre;">2016</text></g><g class="xtick"><text text-anchor="middle" x="0" y="439" style="font-family: 'Open Sans'; font-size: 18px; fill: rgb(255, 255, 255); fill-opacity: 1; white-space: pre;" transform="translate(183.51,0)">2018</text></g><g class="xtick"><text text-anchor="middle" x="0" y="439" style="font-family: 'Open Sans'; font-size: 18px; fill: rgb(255, 255, 255); fill-opacity: 1; white-space: pre;" transform="translate(274.7,0)">2020</text></g><g class="xtick"><text text-anchor="middle" x="0" y="439" style="font-family: 'Open Sans'; font-size: 18px; fill: rgb(255, 255, 255); fill-opacity: 1; white-space: pre;" transform="translate(366.02,0)">2022</text></g><g class="xtick"><text text-anchor="middle" x="0" y="439" style="font-family: 'Open Sans'; font-size: 18px; fill: rgb(255, 255, 255); fill-opacity: 1; white-space: pre;" transform="translate(457.21,0)">2024</text></g></g><g class="yaxislayer-above"><g class="ytick"><text text-anchor="end" x="79" y="6.3" transform="translate(0,404)" style="font-family: 'Open Sans'; font-size: 18px; fill: rgb(255, 255, 255); fill-opacity: 1; white-space: pre;">0</text></g><g class="ytick"><text text-anchor="end" x="79" y="6.3" style="font-family: 'Open Sans'; font-size: 18px; fill: rgb(255, 255, 255); fill-opacity: 1; white-space: pre;" transform="translate(0,321.24)">50</text></g><g class="ytick"><text text-anchor="end" x="79" y="6.3" style="font-family: 'Open Sans'; font-size: 18px; fill: rgb(255, 255, 255); fill-opacity: 1; white-space: pre;" transform="translate(0,238.48)">100</text></g><g class="ytick"><text text-anchor="end" x="79" y="6.3" style="font-family: 'Open Sans'; font-size: 18px; fill: rgb(255, 255, 255); fill-opacity: 1; white-space: pre;" transform="translate(0,155.72)">150</text></g></g><g class="overaxes-above"/></g></g><g class="polarlayer"/><g class="smithlayer"/><g class="ternarylayer"/><g class="geolayer"/><g class="funnelarealayer"/><g class="pielayer"/><g class="iciclelayer"/><g class="treemaplayer"/><g class="sunburstlayer"/><g class="glimages"/><defs id="topdefs-f62eab"><g class="clips"/><clipPath id="legendf62eab"><rect width="147" height="63" x="0" y="0"/></clipPath></defs><g class="layer-above"><g class="imagelayer"/><g class="shapelayer"/></g><g class="infolayer"><g class="legend" pointer-events="all" transform="translate(541.04,100)"><rect class="bg" shape-rendering="crispEdges" style="stroke: rgb(68, 68, 68); stroke-opacity: 1; fill: rgb(0, 0, 0); fill-opacity: 0; stroke-width: 0px;" width="147" height="63" x="0" y="0"/><g class="scrollbox" transform="" clip-path="url(#legendf62eab)"><g class="groups"><g class="traces" transform="translate(0,18.200000000000003)" style="opacity: 1;"><text class="legendtext" text-anchor="start" x="40" y="7.0200000000000005" style="font-family: 'Open Sans'; font-size: 18px; fill: rgb(255, 255, 255); fill-opacity: 1; white-space: pre;">Modules</text><g class="layers"><g class="legendfill"><path class="js-fill" d="M5,-2h30v6h-30z" style="stroke-width: 0; fill: rgb(99, 110, 250); fill-opacity: 0.5;"/></g><g class="legendlines"><path class="js-line" d="M5,-2h30" style="fill: none; stroke: rgb(99, 110, 250); stroke-opacity: 1; stroke-width: 2px;"/></g><g class="legendsymbols"><g class="legendpoints"/></g></g><rect class="legendtoggle" x="0" y="-13.200000000000001" width="141.734375" height="26.400000000000002" style="fill: rgb(0, 0, 0); fill-opacity: 0;"/></g><g class="traces" transform="translate(0,44.6)" style="opacity: 1;"><text class="legendtext" text-anchor="start" x="40" y="7.0200000000000005" style="font-family: 'Open Sans'; font-size: 18px; fill: rgb(255, 255, 255); fill-opacity: 1; white-space: pre;">BOSC 2017</text><g class="layers" style="opacity: 1;"><g class="legendfill"/><g class="legendlines"><path class="js-line" d="M5,0h30" style="fill: none; stroke: rgb(239, 85, 59); stroke-opacity: 1; stroke-width: 2px;"/></g><g class="legendsymbols"><g class="legendpoints"/></g></g><rect class="legendtoggle" x="0" y="-13.200000000000001" width="141.734375" height="26.400000000000002" style="fill: rgb(0, 0, 0); fill-opacity: 0;"/></g></g></g><rect class="scrollbar" rx="20" ry="3" width="0" height="0" style="fill: rgb(128, 139, 164); fill-opacity: 1;" x="0" y="0"/></g><g class="g-gtitle"><text class="gtitle" x="35" y="50" text-anchor="start" dy="0em" style="opacity: 1; font-family: 'Open Sans'; font-size: 25px; fill: rgb(255, 255, 255); fill-opacity: 1; white-space: pre;">MultiQC modules over time</text></g><g class="g-xtitle"><text class="xtitle" x="306" y="472.9" text-anchor="middle" style="opacity: 1; font-family: 'Open Sans'; font-size: 22px; fill: rgb(255, 255, 255); fill-opacity: 1; white-space: pre;">Date</text></g><g class="g-ytitle"><text class="ytitle" transform="rotate(-90,22.440624999999997,260)" x="22.440624999999997" y="260" text-anchor="middle" style="opacity: 1; font-family: 'Open Sans'; font-size: 22px; fill: rgb(255, 255, 255); fill-opacity: 1; white-space: pre;">Number of modules</text></g></g></svg>