<svg class="main-svg" xmlns="http://www.w3.org/2000/svg" xmlns:xlink="http://www.w3.org/1999/xlink" width="700" height="500" style="" viewBox="0 0 700 500"><rect x="0" y="0" width="700" height="500" style="fill: rgb(0, 0, 0); fill-opacity: 0;"/><defs id="defs-873c0c"><g class="clips"><clipPath id="clip873c0cxyplot" class="plotclip"><rect width="490" height="320"/></clipPath><clipPath class="axesclip" id="clip873c0cx"><rect x="80" y="0" width="490" height="500"/></clipPath><clipPath class="axesclip" id="clip873c0cy"><rect x="0" y="100" width="700" height="320"/></clipPath><clipPath class="axesclip" id="clip873c0cxy"><rect x="80" y="100" width="490" height="320"/></clipPath></g><g class="gradients"/><g class="patterns"/></defs><g class="bglayer"><rect class="bg" x="80" y="100" width="490" height="320" style="fill: rgb(0, 0, 0); fill-opacity: 0; stroke-width: 0;"/></g><g class="layer-below"><g class="imagelayer"/><g class="shapelayer"/></g><g class="cartesianlayer"><g class="subplot xy"><g class="layer-subplot"><g class="shapelayer"/><g class="imagelayer"/></g><g class="minor-gridlayer"><g class="x"/><g class="y"/></g><g class="gridlayer"><g class="x"><path class="xgrid crisp" transform="translate(93.22,0)" d="M0,100v320" style="stroke: rgb(255, 255, 255); stroke-opacity: 1; stroke-width: 1px;"/><path class="xgrid crisp" transform="translate(192.20999999999998,0)" d="M0,100v320" style="stroke: rgb(255, 255, 255); stroke-opacity: 1; stroke-width: 1px;"/><path class="xgrid crisp" transform="translate(291.07,0)" d="M0,100v320" style="stroke: rgb(255, 255, 255); stroke-opacity: 1; stroke-width: 1px;"/><path class="xgrid crisp" transform="translate(390.07,0)" d="M0,100v320" style="stroke: rgb(255, 255, 255); stroke-opacity: 1; stroke-width: 1px;"/><path class="xgrid crisp" transform="translate(488.93,0)" d="M0,100v320" style="stroke: rgb(255, 255, 255); stroke-opacity: 1; stroke-width: 1px;"/></g><g class="y"><path class="ygrid crisp" transform="translate(0,321.24)" d="M80,0h490" style="stroke: rgb(255, 255, 255); stroke-opacity: 1; stroke-width: 1px;"/><path class="ygrid crisp" transform="translate(0,238.48)" d="M80,0h490" style="stroke: rgb(255, 255, 255); stroke-opacity: 1; stroke-width: 1px;"/><path class="ygrid crisp" transform="translate(0,155.72)" d="M80,0h490" style="stroke: rgb(255, 255, 255); stroke-opacity: 1; stroke-width: 1px;"/></g></g><g class="zerolinelayer"><path class="yzl zl crisp" transform="translate(0,404)" d="M80,0h490" style="stroke: rgb(255, 255, 255); stroke-opacity: 1; stroke-width: 2px;"/></g><g class="layer-between"><g class="shapelayer"/><g class="imagelayer"/></g><path class="xlines-below"/><path class="ylines-below"/><g class="overlines-below"/><g class="xaxislayer-below"/><g class="yaxislayer-below"/><g class="overaxes-below"/><g class="overplot"><g class="xy" transform="translate(80,100)" clip-path="url(#clip873c0cxyplot)"><g class="scatterlayer mlayer"><g class="trace scatter trace24df34" style="stroke-miterlimit: 2;"><g class="fills"><g><path class="js-fill" d="M490,304L0,304L0,302.34L0.21,295.72L0.21,294.07L0.29,284.14L2.35,282.48L19.58,279.17L19.63,277.52L22.39,275.86L23.31,274.21L24.02,272.55L26.35,270.9L29.29,269.24L29.3,267.59L29.4,265.93L32,264.28L38.64,262.62L40.27,260.97L40.52,259.31L54.98,257.66L57.32,254.34L60.56,252.69L61.1,249.38L68.5,247.72L70.56,246.07L71.18,244.41L72.87,241.1L76.67,239.45L86.84,237.79L87.93,236.14L88.07,224.55L89.69,222.9L90.09,217.93L94.3,216.28L95.51,212.97L97.94,211.31L98.05,209.66L99.42,208L101.35,206.34L107.81,204.69L113.23,203.03L121.23,201.38L121.35,199.72L124.86,198.07L125.7,196.41L127.48,194.76L135.02,193.1L136.67,191.45L136.85,189.79L141.12,188.14L143.04,184.83L150.94,183.17L151.99,181.52L159.88,179.86L172.19,176.55L172.16,174.9L179.72,173.24L179.99,171.59L194.35,169.93L200.32,168.28L207.48,164.97L217.82,163.31L224.39,161.66L225.67,160L226.23,155.03L227.42,153.38L228.36,150.07L231.19,148.41L231.79,143.45L234.01,141.79L235.95,138.48L237.07,136.83L245.1,133.52L245.28,131.86L245.41,130.21L247.48,128.55L253.67,126.9L253.93,125.24L254.47,123.59L258.39,121.93L260.37,120.28L267.9,118.62L269.43,116.97L276.43,115.31L277.28,113.66L282.65,112L283.44,110.34L290.11,108.69L299.04,105.38L307.55,103.72L328.94,102.07L331.43,100.41L337.11,98.76L337.25,97.1L338.08,95.45L339.95,93.79L341.02,90.48L345.09,88.83L345.63,87.17L387.89,85.52L391.93,83.86L392.34,82.21L392.37,80.55L394.3,78.9L395.35,75.59L398.02,73.93L400.92,72.28L401.03,70.62L402.9,68.97L411.5,67.31L413.4,65.66L413.53,64L413.9,60.69L414.68,59.03L416.49,57.38L416.86,55.72L419.45,54.07L425.52,52.41L434.21,50.76L434.89,49.1L436.35,45.79L436.38,44.14L442.58,39.17L452.62,37.52L455.78,35.86L455.79,34.21L456.53,25.93L456.58,24.28L456.58,22.62L472.49,20.97L475.62,19.31L489.71,17.66L490,16" style="fill: rgb(99, 110, 250); fill-opacity: 0.5; stroke-width: 0;"/></g></g><g class="errorbars"/><g class="lines"><path class="js-line" d="M0,302.34L0.21,295.72L0.21,294.07L0.29,284.14L2.35,282.48L19.58,279.17L19.63,277.52L22.39,275.86L23.31,274.21L24.02,272.55L26.35,270.9L29.29,269.24L29.3,267.59L29.4,265.93L32,264.28L38.64,262.62L40.27,260.97L40.52,259.31L54.98,257.66L57.32,254.34L60.56,252.69L61.1,249.38L68.5,247.72L70.56,246.07L71.18,244.41L72.87,241.1L76.67,239.45L86.84,237.79L87.93,236.14L88.07,224.55L89.69,222.9L90.09,217.93L94.3,216.28L95.51,212.97L97.94,211.31L98.05,209.66L99.42,208L101.35,206.34L107.81,204.69L113.23,203.03L121.23,201.38L121.35,199.72L124.86,198.07L125.7,196.41L127.48,194.76L135.02,193.1L136.67,191.45L136.85,189.79L141.12,188.14L143.04,184.83L150.94,183.17L151.99,181.52L159.88,179.86L172.19,176.55L172.16,174.9L179.72,173.24L179.99,171.59L194.35,169.93L200.32,168.28L207.48,164.97L217.82,163.31L224.39,161.66L225.67,160L226.23,155.03L227.42,153.38L228.36,150.07L231.19,148.41L231.79,143.45L234.01,141.79L235.95,138.48L237.07,136.83L245.1,133.52L245.28,131.86L245.41,130.21L247.48,128.55L253.67,126.9L253.93,125.24L254.47,123.59L258.39,121.93L260.37,120.28L267.9,118.62L269.43,116.97L276.43,115.31L277.28,113.66L282.65,112L283.44,110.34L290.11,108.69L299.04,105.38L307.55,103.72L328.94,102.07L331.43,100.41L337.11,98.76L337.25,97.1L338.08,95.45L339.95,93.79L341.02,90.48L345.09,88.83L345.63,87.17L387.89,85.52L391.93,83.86L392.34,82.21L392.37,80.55L394.3,78.9L395.35,75.59L398.02,73.93L400.92,72.28L401.03,70.62L402.9,68.97L411.5,67.31L413.4,65.66L413.53,64L413.9,60.69L414.68,59.03L416.49,57.38L416.86,55.72L419.45,54.07L425.52,52.41L434.21,50.76L434.89,49.1L436.35,45.79L436.38,44.14L442.58,39.17L452.62,37.52L455.78,35.86L455.79,34.21L456.53,25.93L456.58,24.28L456.58,22.62L472.49,20.97L475.62,19.31L489.71,17.66L490,16" style="vector-effect: none; fill: none; stroke: rgb(99, 110, 250); stroke-opacity: 1; stroke-width: 2px; opacity: 1;"/></g><g class="points"/><g class="text"/></g><g class="trace scatter trace378688" style="stroke-miterlimit: 2; opacity: 1;"><g class="fills"/><g class="errorbars"/><g class="lines"><path class="js-line" d="M90.14,304L90.14,221.24" style="vector-effect: none; fill: none; stroke: rgb(239, 85, 59); stroke-opacity: 1; stroke-width: 2px; opacity: 1;"/></g><g class="points"/><g class="text"/></g></g></g></g><g class="zerolinelayer-above"/><path class="xlines-above crisp" d="M0,0" style="fill: none;"/><path class="ylines-above crisp" d="M0,0" style="fill: none;"/><g class="overlines-above"/><g class="xaxislayer-above"><g class="xtick"><text text-anchor="middle" x="0" y="439" transform="translate(93.22,0)" style="font-family: 'Open Sans'; font-size: 18px; fill: rgb(255, 255, 255); fill-opacity: 1; white-space: pre;">2016</text></g><g class="xtick"><text text-anchor="middle" x="0" y="439" style="font-family: 'Open Sans'; font-size: 18px; fill: rgb(255, 255, 255); fill-opacity: 1; white-space: pre;" transform="translate(192.20999999999998,0)">2018</text></g><g class="xtick"><text text-anchor="middle" x="0" y="439" style="font-family: 'Open Sans'; font-size: 18px; fill: rgb(255, 255, 255); fill-opacity: 1; white-space: pre;" transform="translate(291.07,0)">2020</text></g><g class="xtick"><text text-anchor="middle" x="0" y="439" style="font-family: 'Open Sans'; font-size: 18px; fill: rgb(255, 255, 255); fill-opacity: 1; white-space: pre;" transform="translate(390.07,0)">2022</text></g><g class="xtick"><text text-anchor="middle" x="0" y="439" style="font-family: 'Open Sans'; font-size: 18px; fill: rgb(255, 255, 255); fill-opacity: 1; white-space: pre;" transform="translate(488.93,0)">2024</text></g></g><g class="yaxislayer-above"><g class="ytick"><text text-anchor="end" x="79" y="6.3" transform="translate(0,404)" style="font-family: 'Open Sans'; font-size: 18px; fill: rgb(255, 255, 255); fill-opacity: 1; white-space: pre;">0</text></g><g class="ytick"><text text-anchor="end" x="79" y="6.3" style="font-family: 'Open Sans'; font-size: 18px; fill: rgb(255, 255, 255); fill-opacity: 1; white-space: pre;" transform="translate(0,321.24)">50</text></g><g class="ytick"><text text-anchor="end" x="79" y="6.3" style="font-family: 'Open Sans'; font-size: 18px; fill: rgb(255, 255, 255); fill-opacity: 1; white-space: pre;" transform="translate(0,238.48)">100</text></g><g class="ytick"><text text-anchor="end" x="79" y="6.3" style="font-family: 'Open Sans'; font-size: 18px; fill: rgb(255, 255, 255); fill-opacity: 1; white-space: pre;" transform="translate(0,155.72)">150</text></g></g><g class="overaxes-above"/></g></g><g class="polarlayer"/><g class="smithlayer"/><g class="ternarylayer"/><g class="geolayer"/><g class="funnelarealayer"/><g class="pielayer"/><g class="iciclelayer"/><g class="treemaplayer"/><g class="sunburstlayer"/><g class="glimages"/><defs id="topdefs-873c0c"><g class="clips"/><clipPath id="legend873c0c"><rect width="108" height="63" x="0" y="0"/></clipPath></defs><g class="layer-above"><g class="imagelayer"/><g class="shapelayer"/></g><g class="infolayer"><g class="legend" pointer-events="all" transform="translate(579.8,100)"><rect class="bg" shape-rendering="crispEdges" style="stroke: rgb(68, 68, 68); stroke-opacity: 1; fill: rgb(0, 0, 0); fill-opacity: 0; stroke-width: 0px;" width="108" height="63" x="0" y="0"/><g class="scrollbox" transform="" clip-path="url(#legend873c0c)"><g class="groups"><g class="traces" transform="translate(0,18.200000000000003)" style="opacity: 1;"><text class="legendtext" text-anchor="start" x="40" y="7.0200000000000005" style="font-family: 'Open Sans'; font-size: 18px; fill: rgb(255, 255, 255); fill-opacity: 1; white-space: pre;">trace 0</text><g class="layers"><g class="legendfill"><path class="js-fill" d="M5,-2h30v6h-30z" style="stroke-width: 0; fill: rgb(99, 110, 250); fill-opacity: 0.5;"/></g><g class="legendlines"><path class="js-line" d="M5,-2h30" style="fill: none; stroke: rgb(99, 110, 250); stroke-opacity: 1; stroke-width: 2px;"/></g><g class="legendsymbols"><g class="legendpoints"/></g></g><rect class="legendtoggle" x="0" y="-13.200000000000001" width="103" height="26.400000000000002" style="fill: rgb(0, 0, 0); fill-opacity: 0;"/></g><g class="traces" transform="translate(0,44.6)" style="opacity: 1;"><text class="legendtext" text-anchor="start" x="40" y="7.0200000000000005" style="font-family: 'Open Sans'; font-size: 18px; fill: rgb(255, 255, 255); fill-opacity: 1; white-space: pre;">trace 1</text><g class="layers" style="opacity: 1;"><g class="legendfill"/><g class="legendlines"><path class="js-line" d="M5,0h30" style="fill: none; stroke: rgb(239, 85, 59); stroke-opacity: 1; stroke-width: 2px;"/></g><g class="legendsymbols"><g class="legendpoints"/></g></g><rect class="legendtoggle" x="0" y="-13.200000000000001" width="103" height="26.400000000000002" style="fill: rgb(0, 0, 0); fill-opacity: 0;"/></g></g></g><rect class="scrollbar" rx="20" ry="3" width="0" height="0" style="fill: rgb(128, 139, 164); fill-opacity: 1;" x="0" y="0"/></g><g class="g-gtitle"><text class="gtitle" x="35" y="50" text-anchor="start" dy="0em" style="opacity: 1; font-family: 'Open Sans'; font-size: 25px; fill: rgb(255, 255, 255); fill-opacity: 1; white-space: pre;">MultiQC modules over time</text></g><g class="g-xtitle"><text class="xtitle" x="325" y="472.9" text-anchor="middle" style="opacity: 1; font-family: 'Open Sans'; font-size: 22px; fill: rgb(255, 255, 255); fill-opacity: 1; white-space: pre;">Date</text></g><g class="g-ytitle"><text class="ytitle" transform="rotate(-90,23.799999999999997,260)" x="23.799999999999997" y="260" text-anchor="middle" style="opacity: 1; font-family: 'Open Sans'; font-size: 22px; fill: rgb(255, 255, 255); fill-opacity: 1; white-space: pre;">Number of modules</text></g></g></svg>