<svg class="main-svg" xmlns="http://www.w3.org/2000/svg" xmlns:xlink="http://www.w3.org/1999/xlink" width="700" height="500" style="" viewBox="0 0 700 500"><rect x="0" y="0" width="700" height="500" style="fill: rgb(0, 0, 0); fill-opacity: 0;"/><defs id="defs-00cccd"><g class="clips"><clipPath id="clip00cccdxyplot" class="plotclip"><rect width="540" height="320"/></clipPath><clipPath class="axesclip" id="clip00cccdx"><rect x="80" y="0" width="540" height="500"/></clipPath><clipPath class="axesclip" id="clip00cccdy"><rect x="0" y="100" width="700" height="320"/></clipPath><clipPath class="axesclip" id="clip00cccdxy"><rect x="80" y="100" width="540" height="320"/></clipPath></g><g class="gradients"/><g class="patterns"/></defs><g class="bglayer"><rect class="bg" x="80" y="100" width="540" height="320" style="fill: rgb(0, 0, 0); fill-opacity: 0; stroke-width: 0;"/></g><g class="layer-below"><g class="imagelayer"/><g class="shapelayer"/></g><g class="cartesianlayer"><g class="subplot xy"><g class="layer-subplot"><g class="shapelayer"/><g class="imagelayer"/></g><g class="minor-gridlayer"><g class="x"/><g class="y"/></g><g class="gridlayer"><g class="x"><path class="xgrid crisp" transform="translate(94.57,0)" d="M0,100v320" style="stroke: rgb(255, 255, 255); stroke-opacity: 1; stroke-width: 1px;"/><path class="xgrid crisp" transform="translate(203.66,0)" d="M0,100v320" style="stroke: rgb(255, 255, 255); stroke-opacity: 1; stroke-width: 1px;"/><path class="xgrid crisp" transform="translate(312.61,0)" d="M0,100v320" style="stroke: rgb(255, 255, 255); stroke-opacity: 1; stroke-width: 1px;"/><path class="xgrid crisp" transform="translate(421.71,0)" d="M0,100v320" style="stroke: rgb(255, 255, 255); stroke-opacity: 1; stroke-width: 1px;"/><path class="xgrid crisp" transform="translate(530.65,0)" d="M0,100v320" style="stroke: rgb(255, 255, 255); stroke-opacity: 1; stroke-width: 1px;"/></g><g class="y"><path class="ygrid crisp" transform="translate(0,332.64)" d="M80,0h540" style="stroke: rgb(255, 255, 255); stroke-opacity: 1; stroke-width: 1px;"/><path class="ygrid crisp" transform="translate(0,245.29)" d="M80,0h540" style="stroke: rgb(255, 255, 255); stroke-opacity: 1; stroke-width: 1px;"/><path class="ygrid crisp" transform="translate(0,157.93)" d="M80,0h540" style="stroke: rgb(255, 255, 255); stroke-opacity: 1; stroke-width: 1px;"/></g></g><g class="zerolinelayer"><path class="yzl zl crisp" transform="translate(0,420)" d="M80,0h540" style="stroke: rgb(255, 255, 255); stroke-opacity: 1; stroke-width: 2px;"/></g><g class="layer-between"><g class="shapelayer"/><g class="imagelayer"/></g><path class="xlines-below"/><path class="ylines-below"/><g class="overlines-below"/><g class="xaxislayer-below"/><g class="yaxislayer-below"/><g class="overaxes-below"/><g class="overplot"><g class="xy" transform="translate(80,100)" clip-path="url(#clip00cccdxyplot)"><g class="scatterlayer mlayer"><g class="trace scatter traceadda41" style="stroke-miterlimit: 2;"><g class="fills"><g><path class="js-fill" d="M540,320L0,320L0,318.25L0.23,311.26L0.23,309.52L0.32,299.03L2.59,297.29L21.58,293.79L21.64,292.05L24.68,290.3L25.68,288.55L26.47,286.8L29.04,285.06L32.28,283.31L32.29,281.56L32.4,279.82L35.27,278.07L42.58,276.32L44.38,274.57L44.65,272.83L60.59,271.08L63.17,267.59L66.74,265.84L67.33,262.34L75.49,260.6L77.76,258.85L78.45,257.1L80.3,253.61L84.5,251.86L95.7,250.11L96.91,248.37L97.06,236.14L98.85,234.39L99.29,229.15L103.92,227.4L105.26,223.91L107.93,222.16L108.06,220.41L109.57,218.67L111.69,216.92L118.82,215.17L124.78,213.43L133.6,211.68L133.74,209.93L137.6,208.18L138.53,206.44L140.48,204.69L148.8,202.94L150.62,201.2L150.81,199.45L155.52,197.7L157.64,194.21L166.34,192.46L167.5,190.71L176.19,188.97L189.76,185.47L189.72,183.72L198.06,181.98L198.36,180.23L214.19,178.48L220.76,176.74L228.65,173.24L240.04,171.49L247.29,169.75L248.7,168L249.31,162.76L250.62,161.01L251.66,157.52L254.78,155.77L255.44,150.53L257.89,148.78L260.02,145.29L261.26,143.54L267.03,141.79L270.11,140.05L270.45,136.55L272.73,134.8L279.55,133.06L279.84,131.31L280.44,129.56L284.75,127.82L286.94,126.07L295.24,124.32L296.92,122.57L304.64,120.83L305.57,119.08L311.5,117.33L312.37,115.59L319.71,113.84L329.55,110.34L338.93,108.6L362.51,106.85L365.25,105.1L371.5,103.36L371.67,101.61L372.58,99.86L374.64,98.11L374.82,96.37L375.82,94.62L380.3,92.87L380.9,91.13L427.47,89.38L431.92,87.63L432.41,84.14L434.54,82.39L435.69,78.9L438.63,77.15L441.83,75.4L441.95,73.66L444.01,71.91L453.49,70.16L455.59,68.41L455.73,66.67L456.14,63.17L456.99,61.43L458.99,59.68L459.4,57.93L462.25,56.18L468.94,54.44L478.52,52.69L479.27,50.94L480.87,47.45L480.91,45.7L487.74,40.46L498.81,38.71L502.29,36.97L502.3,35.22L502.54,28.23L503.12,26.48L503.17,22.99L520.7,21.24L524.15,19.49L539.68,17.75L540,16" style="fill: rgb(99, 110, 250); fill-opacity: 0.5; stroke-width: 0;"/></g></g><g class="errorbars"/><g class="lines"><path class="js-line" d="M0,318.25L0.23,311.26L0.23,309.52L0.32,299.03L2.59,297.29L21.58,293.79L21.64,292.05L24.68,290.3L25.68,288.55L26.47,286.8L29.04,285.06L32.28,283.31L32.29,281.56L32.4,279.82L35.27,278.07L42.58,276.32L44.38,274.57L44.65,272.83L60.59,271.08L63.17,267.59L66.74,265.84L67.33,262.34L75.49,260.6L77.76,258.85L78.45,257.1L80.3,253.61L84.5,251.86L95.7,250.11L96.91,248.37L97.06,236.14L98.85,234.39L99.29,229.15L103.92,227.4L105.26,223.91L107.93,222.16L108.06,220.41L109.57,218.67L111.69,216.92L118.82,215.17L124.78,213.43L133.6,211.68L133.74,209.93L137.6,208.18L138.53,206.44L140.48,204.69L148.8,202.94L150.62,201.2L150.81,199.45L155.52,197.7L157.64,194.21L166.34,192.46L167.5,190.71L176.19,188.97L189.76,185.47L189.72,183.72L198.06,181.98L198.36,180.23L214.19,178.48L220.76,176.74L228.65,173.24L240.04,171.49L247.29,169.75L248.7,168L249.31,162.76L250.62,161.01L251.66,157.52L254.78,155.77L255.44,150.53L257.89,148.78L260.02,145.29L261.26,143.54L267.03,141.79L270.11,140.05L270.45,136.55L272.73,134.8L279.55,133.06L279.84,131.31L280.44,129.56L284.75,127.82L286.94,126.07L295.24,124.32L296.92,122.57L304.64,120.83L305.57,119.08L311.5,117.33L312.37,115.59L319.71,113.84L329.55,110.34L338.93,108.6L362.51,106.85L365.25,105.1L371.5,103.36L371.67,101.61L372.58,99.86L374.64,98.11L374.82,96.37L375.82,94.62L380.3,92.87L380.9,91.13L427.47,89.38L431.92,87.63L432.41,84.14L434.54,82.39L435.69,78.9L438.63,77.15L441.83,75.4L441.95,73.66L444.01,71.91L453.49,70.16L455.59,68.41L455.73,66.67L456.14,63.17L456.99,61.43L458.99,59.68L459.4,57.93L462.25,56.18L468.94,54.44L478.52,52.69L479.27,50.94L480.87,47.45L480.91,45.7L487.74,40.46L498.81,38.71L502.29,36.97L502.3,35.22L502.54,28.23L503.12,26.48L503.17,22.99L520.7,21.24L524.15,19.49L539.68,17.75L540,16" style="vector-effect: none; fill: none; stroke: rgb(99, 110, 250); stroke-opacity: 1; stroke-width: 2px; opacity: 1;"/></g><g class="points"/><g class="text"/></g></g></g></g><g class="zerolinelayer-above"/><path class="xlines-above crisp" d="M0,0" style="fill: none;"/><path class="ylines-above crisp" d="M0,0" style="fill: none;"/><g class="overlines-above"/><g class="xaxislayer-above"><g class="xtick"><text text-anchor="middle" x="0" y="439" transform="translate(94.57,0)" style="font-family: 'Open Sans'; font-size: 18px; fill: rgb(255, 255, 255); fill-opacity: 1; white-space: pre;">2016</text></g><g class="xtick"><text text-anchor="middle" x="0" y="439" style="font-family: 'Open Sans'; font-size: 18px; fill: rgb(255, 255, 255); fill-opacity: 1; white-space: pre;" transform="translate(203.66,0)">2018</text></g><g class="xtick"><text text-anchor="middle" x="0" y="439" style="font-family: 'Open Sans'; font-size: 18px; fill: rgb(255, 255, 255); fill-opacity: 1; white-space: pre;" transform="translate(312.61,0)">2020</text></g><g class="xtick"><text text-anchor="middle" x="0" y="439" style="font-family: 'Open Sans'; font-size: 18px; fill: rgb(255, 255, 255); fill-opacity: 1; white-space: pre;" transform="translate(421.71,0)">2022</text></g><g class="xtick"><text text-anchor="middle" x="0" y="439" style="font-family: 'Open Sans'; font-size: 18px; fill: rgb(255, 255, 255); fill-opacity: 1; white-space: pre;" transform="translate(530.65,0)">2024</text></g></g><g class="yaxislayer-above"><g class="ytick"><text text-anchor="end" x="79" y="6.3" transform="translate(0,420)" style="font-family: 'Open Sans'; font-size: 18px; fill: rgb(255, 255, 255); fill-opacity: 1; white-space: pre;">0</text></g><g class="ytick"><text text-anchor="end" x="79" y="6.3" style="font-family: 'Open Sans'; font-size: 18px; fill: rgb(255, 255, 255); fill-opacity: 1; white-space: pre;" transform="translate(0,332.64)">50</text></g><g class="ytick"><text text-anchor="end" x="79" y="6.3" style="font-family: 'Open Sans'; font-size: 18px; fill: rgb(255, 255, 255); fill-opacity: 1; white-space: pre;" transform="translate(0,245.29)">100</text></g><g class="ytick"><text text-anchor="end" x="79" y="6.3" style="font-family: 'Open Sans'; font-size: 18px; fill: rgb(255, 255, 255); fill-opacity: 1; white-space: pre;" transform="translate(0,157.93)">150</text></g></g><g class="overaxes-above"/></g></g><g class="polarlayer"/><g class="smithlayer"/><g class="ternarylayer"/><g class="geolayer"/><g class="funnelarealayer"/><g class="pielayer"/><g class="iciclelayer"/><g class="treemaplayer"/><g class="sunburstlayer"/><g class="glimages"/><defs id="topdefs-00cccd"><g class="clips"/></defs><g class="layer-above"><g class="imagelayer"/><g class="shapelayer"/></g><g class="infolayer"><g class="g-gtitle"><text class="gtitle" x="35" y="50" text-anchor="start" dy="0em" style="opacity: 1; font-family: 'Open Sans'; font-size: 25px; fill: rgb(255, 255, 255); fill-opacity: 1; white-space: pre;">MultiQC modules over time</text></g><g class="g-xtitle"><text class="xtitle" x="350" y="472.9" text-anchor="middle" style="opacity: 1; font-family: 'Open Sans'; font-size: 22px; fill: rgb(255, 255, 255); fill-opacity: 1; white-space: pre;">Date</text></g><g class="g-ytitle"><text class="ytitle" transform="rotate(-90,23.799999999999997,260)" x="23.799999999999997" y="260" text-anchor="middle" style="opacity: 1; font-family: 'Open Sans'; font-size: 22px; fill: rgb(255, 255, 255); fill-opacity: 1; white-space: pre;">Number of modules</text></g></g></svg>